# xmcd
#
# Track frame offsets:
# 150
# 10650
# 24492
# 40235
# 52837
# 69630
# 80817
# 94575
# 110970
# 123615
#
# Disc length: 1843 seconds
#
# Revision: 1
# Processed by: cddbd v1.5.1PL0 Copyright (c) Steve Scherf et al.
# Submitted via: Easy CD Ripper 1.45
#
DISCID=8107310a
DTITLE=Clint Black - Killin' Time
DYEAR=1989
DGENRE=Country
TTITLE0=Straight From The Factory
TTITLE1=A Better Man
TTITLE2=Nobody's Home
TTITLE3=Walkin' Away
TTITLE4=You're Gonna Leave Me Again
TTITLE5=I'll Be Gone
TTITLE6=Nothing's News
TTITLE7=Winding Down
TTITLE8=Killin' Time
TTITLE9=Live And Learn
EXTD=
EXTT0=
EXTT1=
EXTT2=
EXTT3=
EXTT4=
EXTT5=
EXTT6=
EXTT7=
EXTT8=
EXTT9=
PLAYORDER=
